{
  "accessors": [
    {
      "bufferView": 0,
      "componentType": 5126,
      "count": 4777,
      "max": [
        80.77468872070313,
        179.66603088378906,
        34.08332443237305
      ],
      "min": [
        -75.18460083007813,
        -3.4737401008605957,
        -56.0640983581543
      ],
      "type": "VEC3"
    },
    {
      "bufferView": 1,
      "componentType": 5125,
      "count": 10044,
      "type": "SCALAR"
    },
    {
      "bufferView": 2,
      "componentType": 5126,
      "count": 4777,
      "type": "VEC3"
    },
    {
      "bufferView": 3,
      "componentType": 5126,
      "count": 4777,
      "type": "VEC4"
    },
    {
      "bufferView": 4,
      "componentType": 5126,
      "count": 4777,
      "type": "VEC2"
    },
    {
      "bufferView": 5,
      "componentType": 5126,
      "count": 4777,
      "max": [
        80.77468872070313,
        179.66603088378906,
        34.08332443237305
      ],
      "min": [
        -75.18460083007813,
        -3.4737401008605957,
        -56.0640983581543
      ],
      "type": "VEC3"
    },
    {
      "bufferView": 6,
      "componentType": 5125,
      "count": 558,
      "type": "SCALAR"
    },
    {
      "bufferView": 7,
      "componentType": 5126,
      "count": 4777,
      "type": "VEC3"
    },
    {
      "bufferView": 8,
      "componentType": 5126,
      "count": 4777,
      "type": "VEC4"
    },
    {
      "bufferView": 9,
      "componentType": 5126,
      "count": 4777,
      "type": "VEC2"
    }
  ],
  "asset": {
    "version": "2.0"
  },
  "bufferViews": [
    {
      "buffer": 0,
      "byteLength": 57324,
      "target": 34962
    },
    {
      "buffer": 1,
      "byteLength": 40176,
      "target": 34963
    },
    {
      "buffer": 2,
      "byteLength": 57324,
      "target": 34962
    },
    {
      "buffer": 3,
      "byteLength": 76432,
      "target": 34962
    },
    {
      "buffer": 4,
      "byteLength": 38216,
      "target": 34962
    },
    {
      "buffer": 0,
      "byteLength": 57324,
      "target": 34962
    },
    {
      "buffer": 5,
      "byteLength": 2232,
      "target": 34963
    },
    {
      "buffer": 2,
      "byteLength": 57324,
      "target": 34962
    },
    {
      "buffer": 3,
      "byteLength": 76432,
      "target": 34962
    },
    {
      "buffer": 4,
      "byteLength": 38216,
      "target": 34962
    }
  ],
  "buffers": [
    {
      "byteLength": 57324,
      "uri": "data:application/octet-stream;base64,"
    },
    {
      "byteLength": 40176,
      "uri": "data:application/octet-stream;base64,"
    },
    {
      "byteLength": 57324,
      "uri": "data:application/octet-stream;base64,"
    },
    {
      "byteLength": 76432,
      "uri": "data:application/octet-stream;base64,"
    },
    {
      "byteLength": 38216,
      "uri": "data:application/octet-stream;base64,"
    },
    {
      "byteLength": 2232,
      "uri": "data:application/octet-stream;base64,"
    }
  ],
  "extensionsUsed": [
    "KHR_materials_emissive_strength",
    "KHR_materials_specular"
  ],
  "images": [
    {
      "uri": "textures/elf_priestess_rough.comb.png"
    },
    {
      "uri": "textures/elf_priestess_tex.png"
    },
    {
      "uri": "textures/elf_priestess_glow.png"
    },
    {
      "uri": "textures/elf_priestess_metal.png"
    }
  ],
  "materials": [
    {
      "doubleSided": true,
      "emissiveFactor": [
        1.0,
        1.0,
        1.0
      ],
      "emissiveTexture": {
        "index": 2
      },
      "extensions": {
        "KHR_materials_emissive_strength": {
          "emissiveStrength": 3.726006031036377
        },
        "KHR_materials_specular": {
          "specularFactor": 1.0,
          "specularTexture": {
            "index": 3,
            "texCoord": 0
          }
        }
      },
      "name": "elf_priestess_mat",
      "pbrMetallicRoughness": {
        "baseColorTexture": {
          "index": 1
        },
        "metallicRoughnessTexture": {
          "index": 0
        }
      }
    }
  ],
  "meshes": [
    {
      "name": "magic_ball_elf_priestess4_elf_priestess_mat_0",
      "primitives": [
        {
          "attributes": {
            "NORMAL": 2,
            "POSITION": 0,
            "TANGENT": 3,
            "TEXCOORD_0": 4
          },
          "indices": 1,
          "material": 0,
          "mode": 5
        },
        {
          "attributes": {
            "NORMAL": 7,
            "POSITION": 5,
            "TANGENT": 8,
            "TEXCOORD_0": 9
          },
          "indices": 6,
          "material": 0,
          "mode": 4
        }
      ]
    }
  ],
  "nodes": [
    {
      "mesh": 0,
      "name": "magic_ball_elf_priestess4_elf_priestess_mat_0"
    },
    {
      "children": [
        0
      ],
      "name": "magic_ball_elf_priestess4"
    },
    {
      "children": [
        1
      ],
      "name": "RootNode"
    },
    {
      "children": [
        2
      ],
      "name": "Elven Priestess - Proto Series",
      "rotation": [
        1.1102230246251565e-16,
        0.0,
        0.0,
        1.0
      ],
      "scale": [
        1.0,
        1.0,
        1.0
      ],
      "translation": [
        0.0,
        0.0,
        0.0
      ]
    }
  ],
  "samplers": [
    {
      "magFilter": 9729,
      "minFilter": 9987,
      "wrapS": 10497,
      "wrapT": 10497
    },
    {
      "magFilter": 9729,
      "minFilter": 9987,
      "wrapS": 10497,
      "wrapT": 10497
    },
    {
      "magFilter": 9729,
      "minFilter": 9987,
      "wrapS": 10497,
      "wrapT": 10497
    },
    {
      "magFilter": 9729,
      "minFilter": 9987,
      "wrapS": 10497,
      "wrapT": 10497
    }
  ],
  "scene": 0,
  "scenes": [
    {
      "nodes": [
        3
      ]
    }
  ],
  "textures": [
    {
      "sampler": 0,
      "source": 0
    },
    {
      "sampler": 1,
      "source": 1
    },
    {
      "sampler": 2,
      "source": 2
    },
    {
      "sampler": 3,
      "source": 3
    }
  ]
}
