{
  "accessors": [
    {
      "bufferView": 0,
      "componentType": 5126,
      "count": 5658,
      "max": [
        52.67993927001953,
        182.33213806152344,
        66.4771957397461
      ],
      "min": [
        -76.85260009765625,
        -2.187690019607544,
        -99.33300018310547
      ],
      "type": "VEC3"
    },
    {
      "bufferView": 1,
      "componentType": 5125,
      "count": 10793,
      "type": "SCALAR"
    },
    {
      "bufferView": 2,
      "componentType": 5126,
      "count": 5658,
      "type": "VEC3"
    },
    {
      "bufferView": 3,
      "componentType": 5126,
      "count": 5658,
      "type": "VEC4"
    },
    {
      "bufferView": 4,
      "componentType": 5126,
      "count": 5658,
      "type": "VEC2"
    },
    {
      "bufferView": 5,
      "componentType": 5126,
      "count": 5658,
      "max": [
        52.67993927001953,
        182.33213806152344,
        66.4771957397461
      ],
      "min": [
        -76.85260009765625,
        -2.187690019607544,
        -99.33300018310547
      ],
      "type": "VEC3"
    },
    {
      "bufferView": 6,
      "componentType": 5125,
      "count": 450,
      "type": "SCALAR"
    },
    {
      "bufferView": 7,
      "componentType": 5126,
      "count": 5658,
      "type": "VEC3"
    },
    {
      "bufferView": 8,
      "componentType": 5126,
      "count": 5658,
      "type": "VEC4"
    },
    {
      "bufferView": 9,
      "componentType": 5126,
      "count": 5658,
      "type": "VEC2"
    }
  ],
  "asset": {
    "version": "2.0"
  },
  "bufferViews": [
    {
      "buffer": 0,
      "byteLength": 67896,
      "target": 34962
    },
    {
      "buffer": 1,
      "byteLength": 43172,
      "target": 34963
    },
    {
      "buffer": 2,
      "byteLength": 67896,
      "target": 34962
    },
    {
      "buffer": 3,
      "byteLength": 90528,
      "target": 34962
    },
    {
      "buffer": 4,
      "byteLength": 45264,
      "target": 34962
    },
    {
      "buffer": 0,
      "byteLength": 67896,
      "target": 34962
    },
    {
      "buffer": 5,
      "byteLength": 1800,
      "target": 34963
    },
    {
      "buffer": 2,
      "byteLength": 67896,
      "target": 34962
    },
    {
      "buffer": 3,
      "byteLength": 90528,
      "target": 34962
    },
    {
      "buffer": 4,
      "byteLength": 45264,
      "target": 34962
    }
  ],
  "buffers": [
    {
      "byteLength": 67896,
      "uri": "data:application/octet-stream;base64,"
    },
    {
      "byteLength": 43172,
      "uri": "data:application/octet-stream;base64,"
    },
    {
      "byteLength": 67896,
      "uri": "data:application/octet-stream;base64,"
    },
    {
      "byteLength": 90528,
      "uri": "data:application/octet-stream;base64,"
    },
    {
      "byteLength": 45264,
      "uri": "data:application/octet-stream;base64,"
    },
    {
      "byteLength": 1800,
      "uri": "data:application/octet-stream;base64,"
    }
  ],
  "extensionsUsed": [
    "KHR_materials_emissive_strength",
    "KHR_materials_specular"
  ],
  "images": [
    {
      "uri": "textures/human_knight_rough.comb.png"
    },
    {
      "uri": "textures/human_knight.png"
    },
    {
      "uri": "textures/human_knight_metal.png"
    }
  ],
  "materials": [
    {
      "doubleSided": true,
      "extensions": {
        "KHR_materials_emissive_strength": {
          "emissiveStrength": 1.0
        },
        "KHR_materials_specular": {
          "specularFactor": 1.0,
          "specularTexture": {
            "index": 2,
            "texCoord": 0
          }
        }
      },
      "name": "knight_mat",
      "pbrMetallicRoughness": {
        "baseColorTexture": {
          "index": 1
        },
        "metallicRoughnessTexture": {
          "index": 0
        }
      }
    }
  ],
  "meshes": [
    {
      "name": "head_human_knight2_knight_mat_0",
      "primitives": [
        {
          "attributes": {
            "NORMAL": 2,
            "POSITION": 0,
            "TANGENT": 3,
            "TEXCOORD_0": 4
          },
          "indices": 1,
          "material": 0,
          "mode": 5
        },
        {
          "attributes": {
            "NORMAL": 7,
            "POSITION": 5,
            "TANGENT": 8,
            "TEXCOORD_0": 9
          },
          "indices": 6,
          "material": 0,
          "mode": 4
        }
      ]
    }
  ],
  "nodes": [
    {
      "mesh": 0,
      "name": "head_human_knight2_knight_mat_0"
    },
    {
      "children": [
        0
      ],
      "name": "head_human_knight2"
    },
    {
      "children": [
        1
      ],
      "name": "RootNode"
    },
    {
      "children": [
        2
      ],
      "name": "Human Knight - Proto Series",
      "rotation": [
        1.1102230246251565e-16,
        0.0,
        0.0,
        1.0
      ],
      "scale": [
        1.0,
        1.0,
        1.0
      ],
      "translation": [
        0.0,
        0.0,
        0.0
      ]
    }
  ],
  "samplers": [
    {
      "magFilter": 9729,
      "minFilter": 9987,
      "wrapS": 10497,
      "wrapT": 10497
    },
    {
      "magFilter": 9729,
      "minFilter": 9987,
      "wrapS": 10497,
      "wrapT": 10497
    },
    {
      "magFilter": 9729,
      "minFilter": 9987,
      "wrapS": 10497,
      "wrapT": 10497
    }
  ],
  "scene": 0,
  "scenes": [
    {
      "nodes": [
        3
      ]
    }
  ],
  "textures": [
    {
      "sampler": 0,
      "source": 0
    },
    {
      "sampler": 1,
      "source": 1
    },
    {
      "sampler": 2,
      "source": 2
    }
  ]
}
