{
  "accessors": [
    {
      "bufferView": 0,
      "componentType": 5126,
      "count": 6750,
      "max": [
        71.70693969726563,
        180.7141571044922,
        61.04395294189453
      ],
      "min": [
        -112.80599975585938,
        -2.079169988632202,
        -55.656700134277344
      ],
      "type": "VEC3"
    },
    {
      "bufferView": 1,
      "componentType": 5125,
      "count": 12422,
      "type": "SCALAR"
    },
    {
      "bufferView": 2,
      "componentType": 5126,
      "count": 6750,
      "type": "VEC3"
    },
    {
      "bufferView": 3,
      "componentType": 5126,
      "count": 6750,
      "type": "VEC4"
    },
    {
      "bufferView": 4,
      "componentType": 5126,
      "count": 6750,
      "type": "VEC2"
    },
    {
      "bufferView": 5,
      "componentType": 5126,
      "count": 6750,
      "type": "VEC2"
    },
    {
      "bufferView": 6,
      "componentType": 5126,
      "count": 6750,
      "max": [
        71.70693969726563,
        180.7141571044922,
        61.04395294189453
      ],
      "min": [
        -112.80599975585938,
        -2.079169988632202,
        -55.656700134277344
      ],
      "type": "VEC3"
    },
    {
      "bufferView": 7,
      "componentType": 5125,
      "count": 792,
      "type": "SCALAR"
    },
    {
      "bufferView": 8,
      "componentType": 5126,
      "count": 6750,
      "type": "VEC3"
    },
    {
      "bufferView": 9,
      "componentType": 5126,
      "count": 6750,
      "type": "VEC4"
    },
    {
      "bufferView": 10,
      "componentType": 5126,
      "count": 6750,
      "type": "VEC2"
    },
    {
      "bufferView": 11,
      "componentType": 5126,
      "count": 6750,
      "type": "VEC2"
    }
  ],
  "asset": {
    "version": "2.0"
  },
  "bufferViews": [
    {
      "buffer": 0,
      "byteLength": 81000,
      "target": 34962
    },
    {
      "buffer": 1,
      "byteLength": 49688,
      "target": 34963
    },
    {
      "buffer": 2,
      "byteLength": 81000,
      "target": 34962
    },
    {
      "buffer": 3,
      "byteLength": 108000,
      "target": 34962
    },
    {
      "buffer": 4,
      "byteLength": 54000,
      "target": 34962
    },
    {
      "buffer": 5,
      "byteLength": 54000,
      "target": 34962
    },
    {
      "buffer": 0,
      "byteLength": 81000,
      "target": 34962
    },
    {
      "buffer": 6,
      "byteLength": 3168,
      "target": 34963
    },
    {
      "buffer": 2,
      "byteLength": 81000,
      "target": 34962
    },
    {
      "buffer": 3,
      "byteLength": 108000,
      "target": 34962
    },
    {
      "buffer": 4,
      "byteLength": 54000,
      "target": 34962
    },
    {
      "buffer": 5,
      "byteLength": 54000,
      "target": 34962
    }
  ],
  "buffers": [
    {
      "byteLength": 81000,
      "uri": "data:application/octet-stream;base64,"
    },
    {
      "byteLength": 49688,
      "uri": "data:application/octet-stream;base64,"
    },
    {
      "byteLength": 81000,
      "uri": "data:application/octet-stream;base64,"
    },
    {
      "byteLength": 108000,
      "uri": "data:application/octet-stream;base64,"
    },
    {
      "byteLength": 54000,
      "uri": "data:application/octet-stream;base64,"
    },
    {
      "byteLength": 54000,
      "uri": "data:application/octet-stream;base64,"
    },
    {
      "byteLength": 3168,
      "uri": "data:application/octet-stream;base64,"
    }
  ],
  "extensionsUsed": [
    "KHR_materials_emissive_strength",
    "KHR_materials_specular"
  ],
  "images": [
    {
      "uri": "textures/human_mage_rough.comb.png"
    },
    {
      "uri": "textures/human_mage_col.png"
    },
    {
      "uri": "textures/human_mage_glow.png"
    },
    {
      "uri": "textures/human_mage_metal.png"
    }
  ],
  "materials": [
    {
      "doubleSided": true,
      "emissiveFactor": [
        1.0,
        1.0,
        1.0
      ],
      "emissiveTexture": {
        "index": 2
      },
      "extensions": {
        "KHR_materials_emissive_strength": {
          "emissiveStrength": 1.0
        },
        "KHR_materials_specular": {
          "specularFactor": 1.0,
          "specularTexture": {
            "index": 3,
            "texCoord": 0
          }
        }
      },
      "name": "human_mage_mat",
      "pbrMetallicRoughness": {
        "baseColorTexture": {
          "index": 1
        },
        "metallicRoughnessTexture": {
          "index": 0
        }
      }
    }
  ],
  "meshes": [
    {
      "name": "head_human_mage2_human_mage_mat_0",
      "primitives": [
        {
          "attributes": {
            "NORMAL": 2,
            "POSITION": 0,
            "TANGENT": 3,
            "TEXCOORD_0": 4,
            "TEXCOORD_1": 5
          },
          "indices": 1,
          "material": 0,
          "mode": 5
        },
        {
          "attributes": {
            "NORMAL": 8,
            "POSITION": 6,
            "TANGENT": 9,
            "TEXCOORD_0": 10,
            "TEXCOORD_1": 11
          },
          "indices": 7,
          "material": 0,
          "mode": 4
        }
      ]
    }
  ],
  "nodes": [
    {
      "mesh": 0,
      "name": "head_human_mage2_human_mage_mat_0"
    },
    {
      "children": [
        0
      ],
      "name": "head_human_mage2"
    },
    {
      "children": [
        1
      ],
      "name": "RootNode"
    },
    {
      "children": [
        2
      ],
      "name": "Human Mage - Proto Series",
      "rotation": [
        1.1102230246251565e-16,
        0.0,
        0.0,
        1.0
      ],
      "scale": [
        1.0,
        1.0,
        1.0
      ],
      "translation": [
        0.0,
        0.0,
        0.0
      ]
    }
  ],
  "samplers": [
    {
      "magFilter": 9729,
      "minFilter": 9987,
      "wrapS": 10497,
      "wrapT": 10497
    },
    {
      "magFilter": 9729,
      "minFilter": 9987,
      "wrapS": 10497,
      "wrapT": 10497
    },
    {
      "magFilter": 9729,
      "minFilter": 9987,
      "wrapS": 10497,
      "wrapT": 10497
    },
    {
      "magFilter": 9729,
      "minFilter": 9987,
      "wrapS": 10497,
      "wrapT": 10497
    }
  ],
  "scene": 0,
  "scenes": [
    {
      "nodes": [
        3
      ]
    }
  ],
  "textures": [
    {
      "sampler": 0,
      "source": 0
    },
    {
      "sampler": 1,
      "source": 1
    },
    {
      "sampler": 2,
      "source": 2
    },
    {
      "sampler": 3,
      "source": 3
    }
  ]
}
