{
  "accessors": [
    {
      "bufferView": 0,
      "componentType": 5126,
      "count": 4677,
      "max": [
        59.987510681152344,
        161.1309051513672,
        95.80719757080078
      ],
      "min": [
        -79.66020202636719,
        -1.7810499668121338,
        -86.68730163574219
      ],
      "type": "VEC3"
    },
    {
      "bufferView": 1,
      "componentType": 5125,
      "count": 9277,
      "type": "SCALAR"
    },
    {
      "bufferView": 2,
      "componentType": 5126,
      "count": 4677,
      "type": "VEC3"
    },
    {
      "bufferView": 3,
      "componentType": 5126,
      "count": 4677,
      "type": "VEC4"
    },
    {
      "bufferView": 4,
      "componentType": 5126,
      "count": 4677,
      "type": "VEC2"
    },
    {
      "bufferView": 5,
      "componentType": 5126,
      "count": 4677,
      "max": [
        59.987510681152344,
        161.1309051513672,
        95.80719757080078
      ],
      "min": [
        -79.66020202636719,
        -1.7810499668121338,
        -86.68730163574219
      ],
      "type": "VEC3"
    },
    {
      "bufferView": 6,
      "componentType": 5125,
      "count": 492,
      "type": "SCALAR"
    },
    {
      "bufferView": 7,
      "componentType": 5126,
      "count": 4677,
      "type": "VEC3"
    },
    {
      "bufferView": 8,
      "componentType": 5126,
      "count": 4677,
      "type": "VEC4"
    },
    {
      "bufferView": 9,
      "componentType": 5126,
      "count": 4677,
      "type": "VEC2"
    }
  ],
  "asset": {
    "version": "2.0"
  },
  "bufferViews": [
    {
      "buffer": 0,
      "byteLength": 56124,
      "target": 34962
    },
    {
      "buffer": 1,
      "byteLength": 37108,
      "target": 34963
    },
    {
      "buffer": 2,
      "byteLength": 56124,
      "target": 34962
    },
    {
      "buffer": 3,
      "byteLength": 74832,
      "target": 34962
    },
    {
      "buffer": 4,
      "byteLength": 37416,
      "target": 34962
    },
    {
      "buffer": 0,
      "byteLength": 56124,
      "target": 34962
    },
    {
      "buffer": 5,
      "byteLength": 1968,
      "target": 34963
    },
    {
      "buffer": 2,
      "byteLength": 56124,
      "target": 34962
    },
    {
      "buffer": 3,
      "byteLength": 74832,
      "target": 34962
    },
    {
      "buffer": 4,
      "byteLength": 37416,
      "target": 34962
    }
  ],
  "buffers": [
    {
      "byteLength": 56124,
      "uri": "data:application/octet-stream;base64,"
    },
    {
      "byteLength": 37108,
      "uri": "data:application/octet-stream;base64,"
    },
    {
      "byteLength": 56124,
      "uri": "data:application/octet-stream;base64,"
    },
    {
      "byteLength": 74832,
      "uri": "data:application/octet-stream;base64,"
    },
    {
      "byteLength": 37416,
      "uri": "data:application/octet-stream;base64,"
    },
    {
      "byteLength": 1968,
      "uri": "data:application/octet-stream;base64,"
    }
  ],
  "extensionsUsed": [
    "KHR_materials_emissive_strength",
    "KHR_materials_specular"
  ],
  "images": [
    {
      "uri": "textures/snon_jow_rough.comb.png"
    },
    {
      "uri": "textures/raydal_blond_tex.png"
    },
    {
      "uri": "textures/snon_jow_metal.png"
    }
  ],
  "materials": [
    {
      "doubleSided": true,
      "extensions": {
        "KHR_materials_emissive_strength": {
          "emissiveStrength": 1.0
        },
        "KHR_materials_specular": {
          "specularFactor": 1.0,
          "specularTexture": {
            "index": 2,
            "texCoord": 0
          }
        }
      },
      "name": "snon_jow_mat",
      "pbrMetallicRoughness": {
        "baseColorTexture": {
          "index": 1
        },
        "metallicRoughnessTexture": {
          "index": 0
        }
      }
    }
  ],
  "meshes": [
    {
      "name": "head_snon_jow2_snon_jow_mat_0",
      "primitives": [
        {
          "attributes": {
            "NORMAL": 2,
            "POSITION": 0,
            "TANGENT": 3,
            "TEXCOORD_0": 4
          },
          "indices": 1,
          "material": 0,
          "mode": 5
        },
        {
          "attributes": {
            "NORMAL": 7,
            "POSITION": 5,
            "TANGENT": 8,
            "TEXCOORD_0": 9
          },
          "indices": 6,
          "material": 0,
          "mode": 4
        }
      ]
    }
  ],
  "nodes": [
    {
      "mesh": 0,
      "name": "head_snon_jow2_snon_jow_mat_0"
    },
    {
      "children": [
        0
      ],
      "name": "head_snon_jow2"
    },
    {
      "children": [
        1
      ],
      "name": "RootNode"
    },
    {
      "children": [
        2
      ],
      "name": "Nordic Warrior Raydal - Proto Series",
      "rotation": [
        1.1102230246251565e-16,
        0.0,
        0.0,
        1.0
      ],
      "scale": [
        1.0,
        1.0,
        1.0
      ],
      "translation": [
        0.0,
        0.0,
        0.0
      ]
    }
  ],
  "samplers": [
    {
      "magFilter": 9729,
      "minFilter": 9987,
      "wrapS": 10497,
      "wrapT": 10497
    },
    {
      "magFilter": 9729,
      "minFilter": 9987,
      "wrapS": 10497,
      "wrapT": 10497
    },
    {
      "magFilter": 9729,
      "minFilter": 9987,
      "wrapS": 10497,
      "wrapT": 10497
    }
  ],
  "scene": 0,
  "scenes": [
    {
      "nodes": [
        3
      ]
    }
  ],
  "textures": [
    {
      "sampler": 0,
      "source": 0
    },
    {
      "sampler": 1,
      "source": 1
    },
    {
      "sampler": 2,
      "source": 2
    }
  ]
}
