{
  "accessors": [
    {
      "bufferView": 0,
      "componentType": 5126,
      "count": 5776,
      "max": [
        68.63382720947266,
        198.903076171875,
        67.79385375976563
      ],
      "min": [
        -62.918800354003906,
        2.1628000736236572,
        -70.27580261230469
      ],
      "type": "VEC3"
    },
    {
      "bufferView": 1,
      "componentType": 5125,
      "count": 11698,
      "type": "SCALAR"
    },
    {
      "bufferView": 2,
      "componentType": 5126,
      "count": 5776,
      "type": "VEC3"
    },
    {
      "bufferView": 3,
      "componentType": 5126,
      "count": 5776,
      "type": "VEC4"
    },
    {
      "bufferView": 4,
      "componentType": 5126,
      "count": 5776,
      "type": "VEC2"
    },
    {
      "bufferView": 5,
      "componentType": 5126,
      "count": 5776,
      "max": [
        68.63382720947266,
        198.903076171875,
        67.79385375976563
      ],
      "min": [
        -62.918800354003906,
        2.1628000736236572,
        -70.27580261230469
      ],
      "type": "VEC3"
    },
    {
      "bufferView": 6,
      "componentType": 5125,
      "count": 552,
      "type": "SCALAR"
    },
    {
      "bufferView": 7,
      "componentType": 5126,
      "count": 5776,
      "type": "VEC3"
    },
    {
      "bufferView": 8,
      "componentType": 5126,
      "count": 5776,
      "type": "VEC4"
    },
    {
      "bufferView": 9,
      "componentType": 5126,
      "count": 5776,
      "type": "VEC2"
    }
  ],
  "asset": {
    "version": "2.0"
  },
  "bufferViews": [
    {
      "buffer": 0,
      "byteLength": 69312,
      "target": 34962
    },
    {
      "buffer": 1,
      "byteLength": 46792,
      "target": 34963
    },
    {
      "buffer": 2,
      "byteLength": 69312,
      "target": 34962
    },
    {
      "buffer": 3,
      "byteLength": 92416,
      "target": 34962
    },
    {
      "buffer": 4,
      "byteLength": 46208,
      "target": 34962
    },
    {
      "buffer": 0,
      "byteLength": 69312,
      "target": 34962
    },
    {
      "buffer": 5,
      "byteLength": 2208,
      "target": 34963
    },
    {
      "buffer": 2,
      "byteLength": 69312,
      "target": 34962
    },
    {
      "buffer": 3,
      "byteLength": 92416,
      "target": 34962
    },
    {
      "buffer": 4,
      "byteLength": 46208,
      "target": 34962
    }
  ],
  "buffers": [
    {
      "byteLength": 69312,
      "uri": "data:application/octet-stream;base64,"
    },
    {
      "byteLength": 46792,
      "uri": "data:application/octet-stream;base64,"
    },
    {
      "byteLength": 69312,
      "uri": "data:application/octet-stream;base64,"
    },
    {
      "byteLength": 92416,
      "uri": "data:application/octet-stream;base64,"
    },
    {
      "byteLength": 46208,
      "uri": "data:application/octet-stream;base64,"
    },
    {
      "byteLength": 2208,
      "uri": "data:application/octet-stream;base64,"
    }
  ],
  "extensionsUsed": [
    "KHR_materials_emissive_strength",
    "KHR_materials_specular"
  ],
  "images": [
    {
      "uri": "textures/elf_assassin_rough.comb.png"
    },
    {
      "uri": "textures/elf_assassin_tex.png"
    },
    {
      "uri": "textures/elf_assassin_metal.png"
    }
  ],
  "materials": [
    {
      "doubleSided": true,
      "extensions": {
        "KHR_materials_emissive_strength": {
          "emissiveStrength": 1.0
        },
        "KHR_materials_specular": {
          "specularFactor": 1.0,
          "specularTexture": {
            "index": 2,
            "texCoord": 0
          }
        }
      },
      "name": "elf_archer_proto_rts",
      "pbrMetallicRoughness": {
        "baseColorTexture": {
          "index": 1
        },
        "metallicRoughnessTexture": {
          "index": 0
        }
      }
    }
  ],
  "meshes": [
    {
      "name": "torso_elf_assassin2_elf_archer_proto_rts_0",
      "primitives": [
        {
          "attributes": {
            "NORMAL": 2,
            "POSITION": 0,
            "TANGENT": 3,
            "TEXCOORD_0": 4
          },
          "indices": 1,
          "material": 0,
          "mode": 5
        },
        {
          "attributes": {
            "NORMAL": 7,
            "POSITION": 5,
            "TANGENT": 8,
            "TEXCOORD_0": 9
          },
          "indices": 6,
          "material": 0,
          "mode": 4
        }
      ]
    }
  ],
  "nodes": [
    {
      "mesh": 0,
      "name": "torso_elf_assassin2_elf_archer_proto_rts_0"
    },
    {
      "children": [
        0
      ],
      "name": "torso_elf_assassin2"
    },
    {
      "children": [
        1
      ],
      "name": "RootNode"
    },
    {
      "children": [
        2
      ],
      "name": "Elven Assassin - Proto Series",
      "rotation": [
        1.1102230246251565e-16,
        0.0,
        0.0,
        1.0
      ],
      "scale": [
        1.0,
        1.0,
        1.0
      ],
      "translation": [
        0.0,
        0.0,
        0.0
      ]
    }
  ],
  "samplers": [
    {
      "magFilter": 9729,
      "minFilter": 9987,
      "wrapS": 10497,
      "wrapT": 10497
    },
    {
      "magFilter": 9729,
      "minFilter": 9987,
      "wrapS": 10497,
      "wrapT": 10497
    },
    {
      "magFilter": 9729,
      "minFilter": 9987,
      "wrapS": 10497,
      "wrapT": 10497
    }
  ],
  "scene": 0,
  "scenes": [
    {
      "nodes": [
        3
      ]
    }
  ],
  "textures": [
    {
      "sampler": 0,
      "source": 0
    },
    {
      "sampler": 1,
      "source": 1
    },
    {
      "sampler": 2,
      "source": 2
    }
  ]
}
