{
  "accessors": [
    {
      "bufferView": 0,
      "componentType": 5126,
      "count": 6345,
      "max": [
        39.504276275634766,
        167.3295440673828,
        125.04481506347656
      ],
      "min": [
        -45.270999908447266,
        -1.5499999523162842,
        -76.58100128173828
      ],
      "type": "VEC3"
    },
    {
      "bufferView": 1,
      "componentType": 5125,
      "count": 11780,
      "type": "SCALAR"
    },
    {
      "bufferView": 2,
      "componentType": 5126,
      "count": 6345,
      "type": "VEC3"
    },
    {
      "bufferView": 3,
      "componentType": 5126,
      "count": 6345,
      "type": "VEC4"
    },
    {
      "bufferView": 4,
      "componentType": 5126,
      "count": 6345,
      "type": "VEC2"
    },
    {
      "bufferView": 5,
      "componentType": 5126,
      "count": 6345,
      "max": [
        39.504276275634766,
        167.3295440673828,
        125.04481506347656
      ],
      "min": [
        -45.270999908447266,
        -1.5499999523162842,
        -76.58100128173828
      ],
      "type": "VEC3"
    },
    {
      "bufferView": 6,
      "componentType": 5125,
      "count": 819,
      "type": "SCALAR"
    },
    {
      "bufferView": 7,
      "componentType": 5126,
      "count": 6345,
      "type": "VEC3"
    },
    {
      "bufferView": 8,
      "componentType": 5126,
      "count": 6345,
      "type": "VEC4"
    },
    {
      "bufferView": 9,
      "componentType": 5126,
      "count": 6345,
      "type": "VEC2"
    }
  ],
  "asset": {
    "version": "2.0"
  },
  "bufferViews": [
    {
      "buffer": 0,
      "byteLength": 76140,
      "target": 34962
    },
    {
      "buffer": 1,
      "byteLength": 47120,
      "target": 34963
    },
    {
      "buffer": 2,
      "byteLength": 76140,
      "target": 34962
    },
    {
      "buffer": 3,
      "byteLength": 101520,
      "target": 34962
    },
    {
      "buffer": 4,
      "byteLength": 50760,
      "target": 34962
    },
    {
      "buffer": 0,
      "byteLength": 76140,
      "target": 34962
    },
    {
      "buffer": 5,
      "byteLength": 3276,
      "target": 34963
    },
    {
      "buffer": 2,
      "byteLength": 76140,
      "target": 34962
    },
    {
      "buffer": 3,
      "byteLength": 101520,
      "target": 34962
    },
    {
      "buffer": 4,
      "byteLength": 50760,
      "target": 34962
    }
  ],
  "buffers": [
    {
      "byteLength": 76140,
      "uri": "data:application/octet-stream;base64,"
    },
    {
      "byteLength": 47120,
      "uri": "data:application/octet-stream;base64,"
    },
    {
      "byteLength": 76140,
      "uri": "data:application/octet-stream;base64,"
    },
    {
      "byteLength": 101520,
      "uri": "data:application/octet-stream;base64,"
    },
    {
      "byteLength": 50760,
      "uri": "data:application/octet-stream;base64,"
    },
    {
      "byteLength": 3276,
      "uri": "data:application/octet-stream;base64,"
    }
  ],
  "extensionsUsed": [
    "KHR_materials_emissive_strength",
    "KHR_materials_specular"
  ],
  "images": [
    {
      "uri": "textures/human_archer_rough.comb.png"
    },
    {
      "uri": "textures/human_archer_texture.png"
    },
    {
      "uri": "textures/human_archer_metal.png"
    }
  ],
  "materials": [
    {
      "doubleSided": true,
      "extensions": {
        "KHR_materials_emissive_strength": {
          "emissiveStrength": 1.0
        },
        "KHR_materials_specular": {
          "specularFactor": 1.0,
          "specularTexture": {
            "index": 2,
            "texCoord": 0
          }
        }
      },
      "name": "human_archer_mat",
      "pbrMetallicRoughness": {
        "baseColorTexture": {
          "index": 1
        },
        "metallicRoughnessTexture": {
          "index": 0
        }
      }
    }
  ],
  "meshes": [
    {
      "name": "bow_human_archer1_human_archer_mat_0",
      "primitives": [
        {
          "attributes": {
            "NORMAL": 2,
            "POSITION": 0,
            "TANGENT": 3,
            "TEXCOORD_0": 4
          },
          "indices": 1,
          "material": 0,
          "mode": 5
        },
        {
          "attributes": {
            "NORMAL": 7,
            "POSITION": 5,
            "TANGENT": 8,
            "TEXCOORD_0": 9
          },
          "indices": 6,
          "material": 0,
          "mode": 4
        }
      ]
    }
  ],
  "nodes": [
    {
      "mesh": 0,
      "name": "bow_human_archer1_human_archer_mat_0"
    },
    {
      "children": [
        0
      ],
      "name": "bow_human_archer1"
    },
    {
      "children": [
        1
      ],
      "name": "RootNode"
    },
    {
      "children": [
        2
      ],
      "name": "Human Archer - Proto Series",
      "rotation": [
        1.1102230246251565e-16,
        0.0,
        0.0,
        1.0
      ],
      "scale": [
        1.0,
        1.0,
        1.0
      ],
      "translation": [
        0.0,
        0.0,
        0.0
      ]
    }
  ],
  "samplers": [
    {
      "magFilter": 9729,
      "minFilter": 9987,
      "wrapS": 10497,
      "wrapT": 10497
    },
    {
      "magFilter": 9729,
      "minFilter": 9987,
      "wrapS": 10497,
      "wrapT": 10497
    },
    {
      "magFilter": 9729,
      "minFilter": 9987,
      "wrapS": 10497,
      "wrapT": 10497
    }
  ],
  "scene": 0,
  "scenes": [
    {
      "nodes": [
        3
      ]
    }
  ],
  "textures": [
    {
      "sampler": 0,
      "source": 0
    },
    {
      "sampler": 1,
      "source": 1
    },
    {
      "sampler": 2,
      "source": 2
    }
  ]
}
